HIERARCHY
ROOT Hips
{
    OFFSET 0.0 0.0 0.0
    CHANNELS 6 Xposition Yposition Zposition Xrotation Yrotation Zrotation
    JOINT Spine
    {
        OFFSET 0.0 25.335010047670025 0.0
        CHANNELS 6 Xposition Yposition Zposition Xrotation Yrotation Zrotation
        JOINT LeftUpperArm
        {
            OFFSET 16.372229540129258 25.524455400237052 0.0
            CHANNELS 6 Xposition Yposition Zposition Xrotation Yrotation Zrotation
            JOINT LeftLowerArm
            {
                OFFSET 31.828304997414094 0.0 0.0
                CHANNELS 6 Xposition Yposition Zposition Xrotation Yrotation Zrotation
                End Site
                {
                OFFSET 6.934956540289116 0.0 0.0
                }
            }
        }
        JOINT RightUpperArm
        {
            OFFSET -16.372229540129258 25.524455400237052 0.0
            CHANNELS 6 Xposition Yposition Zposition Xrotation Yrotation Zrotation
            JOINT RightLowerArm
            {
                OFFSET -31.828304997414094 0.0 0.0
                CHANNELS 6 Xposition Yposition Zposition Xrotation Yrotation Zrotation
                End Site
                {
                OFFSET 6.934956540289116 0.0 0.0
                }
            }
        }
    }
    JOINT LeftUpperLeg
    {
        OFFSET 8.996378831507265 0.0 0.0
        CHANNELS 6 Xposition Yposition Zposition Xrotation Yrotation Zrotation
    }
    JOINT RightUpperLeg
    {
        OFFSET -8.996378831507265 0.0 0.0
        CHANNELS 6 Xposition Yposition Zposition Xrotation Yrotation Zrotation
    }
}
MOTION
Frames: 5
Frame Time: 0.03333333333333333
-0.13673777226311123 -0.19259780941782867 -0.08224393816044466 15.276411604376657 13.467451591623169 3.070926033800452 0.4319673958409216 -25.043275609917977 3.686287386450715e-16 -0.0 -0.0 -0.0 -15.512533228078532 18.119827463446875 -15.166540285193546 150.66658953871416 9.662710495062484 -6.089132535820674 -22.27949699293852 -1.5862143344016726 1.2188570941294163 142.5721749716317 3.123500616065942 4.072367199234496 -3.4166065989915424 -31.425587838159558 5.285469879645806 173.5350006637298 -3.1043542014870966 -157.55647623671518 -23.170542121967685 1.1008902276057637 9.170705748542723 82.63643522055546 21.5711472506779 -2.720219663480535 -0.42141324131191793 -1.7872873322768021 9.132131712231848 -34.91850056315994 78.63053500187472 76.73290287094025 1.7177124467104437 -3.2130115784416033 -8.572854558712455 -163.83314491593808 66.97516409581672 -61.87053441662345
-0.13983023739100225 -0.19012023597572159 -0.08198114798489492 15.172007497410961 13.52136078845099 2.9898859736854386 0.4623123618378756 -25.157297491143428 1.702197410802242e-15 -0.0 -0.0 -0.0 -15.253386268364133 16.65186613583452 -17.14428234224038 144.14257201558127 9.186455013192754 -7.6622445047557575 -22.164563156280526 -1.7761334031608316 1.00912094363651 150.50062949761738 2.5984767735303334 4.581545620109461 -3.2247027553298073 -31.354857414720307 5.337559302625544 173.72369325280704 -3.2314527381322846 -157.40194739400224 -23.069911340001724 1.1193226958463502 9.246316553525979 82.56213714487075 21.817439514941235 -2.777739903986077 -0.41956519569542866 -1.2968306550375788 9.177611120542544 -36.64546403240124 81.55246332114841 72.07198678108922 1.6977035249331727 -3.897342431022837 -8.247113149337094 -168.67649759405606 62.73071171420676 -66.46179717680006
-0.14233766838732873 -0.18652764938306254 -0.08233086902200494 15.095438272459957 13.649491642202705 2.8807659091908637 0.5364450147519667 -25.232287154523004 1.2576745200831851e-15 -0.0 -0.0 -0.0 -14.881581837596855 15.45272774330254 -18.493608177603036 139.54007856663898 8.516595857056208 -8.804289169217672 -22.152138749700693 -1.7262163618468218 0.7829758025601541 155.6804684456204 2.0181852624457344 4.4557973958892125 -3.1149415769436466 -31.4602581184785 4.446004375572294 172.2249045419712 -2.910879649515231 -157.30726611715593 -23.047061867368623 1.8004079675496802 9.198587510523486 78.0692226486294 21.69808583403722 -4.466803884431935 -0.35340997957201586 -1.002479883051816 9.20051384524231 -36.44319931243235 83.40973977756161 70.58062484970155 1.6502912355473818 -4.189071138920551 -8.09367292253761 -170.72443522981857 60.913304968724475 -68.49796077330652
-0.14403050172340012 -0.18283023234101523 -0.08239443126233756 15.233516562060705 13.688884007842919 2.8343363275317626 0.6502452624237184 -25.265314545966756 1.0408340855860843e-15 -0.0 -0.0 -0.0 -14.593066445244695 14.79366299156671 -19.11655154677252 136.97604464899786 8.129875649467172 -9.509854538613553 -22.092210070253202 -1.6903208754423886 0.6953919066934322 157.70658682435962 1.797641433734736 4.375294573903332 -2.8129783167035294 -31.639399893567187 3.270579900538569 170.37260275002976 -2.4030499023634877 -156.61314860073645 -22.8626904428809 2.368783689119336 9.504051337839947 74.8290647072344 22.464502897346424 -5.915260195430377 -0.20170891159757612 -0.8437299637557581 9.19328611570226 -30.483243146647474 84.60936071811479 76.55476382918968 1.5870326282953786 -4.208762420533081 -8.064534869796 -171.57315955592958 60.84916548628962 -69.33963336307269
-0.146013622775167 -0.1800415941345572 -0.08244048999420506 15.114360659993585 13.743593786668669 2.722323105298963 0.736424087283747 -25.326219479008415 6.396792817664476e-16 -0.0 -0.0 -0.0 -14.24021393331015 14.216546861497525 -19.822961722957285 134.61871655531056 7.5700348768821515 -10.333768827613389 -22.077932245901234 -1.6440632091023284 0.5879797767191441 160.37757929521393 1.5213310849191337 4.258747718641239 -2.652368610140589 -31.670079111922945 2.941839363391854 169.9113664699643 -2.257734700542698 -156.27126896345732 -22.727988554967457 2.674193193583449 9.60891378159202 73.09477497152571 22.77667986553313 -6.710613065843127 -0.032035227833339876 -0.7582215748141306 9.153626868874857 -18.838554485810143 85.26062848074626 87.58066453921528 1.5126627245768278 -4.248566209928326 -8.001646562330457 -172.38906653161885 60.59390006798995 -70.40219804940077
